<svg xmlns="http://www.w3.org/2000/svg" width="30" height="28.989" viewBox="0 0 30 28.989">
  <g id="GitHub-Mark-32px" transform="translate(-0.121 31.684)">
    <path id="パス_1" data-name="パス 1" d="M8.982-30.66A14.871,14.871,0,0,0,6.62-4.774c3.685,2.456,4.724,2.645,4.724.661A1.453,1.453,0,0,0,9.927-5.53c-.756,0-2.362-1.134-3.685-2.551C3.6-10.915,3.786-12.332,6.431-9.97c1.889,1.8,4.535,2.078,5.385.756.283-.472-.283-1.134-1.323-1.512-3.779-1.134-5.1-3.873-4.44-9.164L6.714-24.9H23.531l.661,5.007c.661,5.2-.661,8.03-4.251,9.164-1.228.378-1.512,1.323-1.228,4.251C18.9-4.4,19.374-2.7,19.846-2.7a15.966,15.966,0,0,0,3.779-2.078c8.786-6.046,8.6-18.045-.189-24.658C20.224-31.794,12.761-32.455,8.982-30.66Z"/>
  </g>
</svg>
