<svg id="コンポーネント_16_1" data-name="コンポーネント 16 – 1" xmlns="http://www.w3.org/2000/svg" width="282.843" height="212.132" viewBox="0 0 282.843 212.132">
  <g id="コンポーネント_2_1" data-name="コンポーネント 2 – 1" transform="translate(282.843 212.132) rotate(180)">
    <g id="長方形_17" data-name="長方形 17" transform="translate(70.711 70.711) rotate(-45)" fill="#fffcfa" stroke="#f0d7c5" stroke-width="3">
      <rect width="100" height="100" stroke="none"/>
      <rect x="1.5" y="1.5" width="97" height="97" fill="none"/>
    </g>
    <g id="長方形_19" data-name="長方形 19" transform="translate(0 141.421) rotate(-45)" fill="#fffcfa" stroke="#f0d7c5" stroke-width="3">
      <rect width="100" height="100" stroke="none"/>
      <rect x="1.5" y="1.5" width="97" height="97" fill="none"/>
    </g>
    <g id="長方形_20" data-name="長方形 20" transform="translate(141.421 141.421) rotate(-45)" fill="#fffcfa" stroke="#f0d7c5" stroke-width="3">
      <rect width="100" height="100" stroke="none"/>
      <rect x="1.5" y="1.5" width="97" height="97" fill="none"/>
    </g>
  </g>
  <g id="コンポーネント_1_6" data-name="コンポーネント 1 – 6" transform="translate(190.968 68.907) rotate(-45)">
    <g id="長方形_17-2" data-name="長方形 17" fill="none" stroke="#050200" stroke-width="3">
      <rect width="23" height="23" stroke="none"/>
      <rect x="1.5" y="1.5" width="20" height="20" fill="none"/>
    </g>
    <g id="長方形_19-2" data-name="長方形 19" transform="translate(0 8)" fill="none" stroke="#050200" stroke-width="3">
      <rect width="23" height="23" stroke="none"/>
      <rect x="1.5" y="1.5" width="20" height="20" fill="none"/>
    </g>
    <g id="長方形_20-2" data-name="長方形 20" transform="translate(8 8)" fill="none" stroke="#050200" stroke-width="3">
      <rect width="23" height="23" stroke="none"/>
      <rect x="1.5" y="1.5" width="20" height="20" fill="none"/>
    </g>
  </g>
  <g id="コンポーネント_1_7" data-name="コンポーネント 1 – 7" transform="translate(49.016 68.907) rotate(-45)">
    <g id="長方形_17-3" data-name="長方形 17" fill="none" stroke="#050200" stroke-width="3">
      <rect width="23" height="23" stroke="none"/>
      <rect x="1.5" y="1.5" width="20" height="20" fill="none"/>
    </g>
    <g id="長方形_19-3" data-name="長方形 19" transform="translate(0 8)" fill="none" stroke="#050200" stroke-width="3">
      <rect width="23" height="23" stroke="none"/>
      <rect x="1.5" y="1.5" width="20" height="20" fill="none"/>
    </g>
    <g id="長方形_20-3" data-name="長方形 20" transform="translate(8 8)" fill="none" stroke="#050200" stroke-width="3">
      <rect width="23" height="23" stroke="none"/>
      <rect x="1.5" y="1.5" width="20" height="20" fill="none"/>
    </g>
  </g>
</svg>
